Coordinates
version=1
nRows=4
nColumns=138
inDegrees=yes

Units are S.I. units (second, meters, Newtons, ...)
If the header above contains a line with 'inDegrees', this indicates whether rotational values are in degrees (yes) or radians (no).

endheader
time	pelvis_tilt	pelvis_list	pelvis_rotation	pelvis_tx	pelvis_ty	pelvis_tz	L5_S1_FE	L5_S1_LB	L5_S1_AR	L4_L5_FE	L4_L5_LB	L4_L5_AR	T12_L1_FE	T12_L1_LB	T12_L1_AR	T11_T12_FE	T11_T12_LB	T11_T12_AR	T10_T11_FE	T10_T11_LB	T10_T11_AR	T9_T10_FE	T9_T10_LB	T9_T10_AR	T8_T9_FE	T8_T9_LB	T8_T9_AR	T1_T2_FE	T1_T2_LB	T1_T2_AR	T1_head_neck_FE	T1_head_neck_LB	T1_head_neck_AR	hip_flexion_r	hip_adduction_r	hip_rotation_r	knee_angle_r	knee_angle_y_r	knee_angle_x_r	ankle_angle_r	subtalar_angle_r	mtp_angle_r	hip_flexion_l	hip_adduction_l	hip_rotation_l	knee_angle_l	knee_angle_y_l	knee_angle_x_l	ankle_angle_l	subtalar_angle_l	mtp_angle_l	skull_z	skull_y	skull_x	sternoclavicular_r2	sternoclavicular_r3	unrotscap_r3	unrotscap_r2	acromioclavicular_r2	acromioclavicular_r3	acromioclavicular_r1	unrothum_r1	unrothum_r3	unrothum_r2	elv_angle	shoulder_elv	shoulder1_r2	shoulder_rot	elbow_flexion	elbow_x	elbow_y	pro_sup	deviation	flexion	thumb_abd	thumb_flex	TCP2M_lateral	TCP2M_flex	TCP2M2_flex	MCP2_lateral	MCP2_flex	PIP_flex	DIP_flex	MCP2M_lateral	MCP2M_flex	MPIP_flex	MDIP_flex	RCP2M_lateral	RCP2M_flex	RPIP_flex	RDIP_flex	LCP2M_lateral	LCP2M_flex	LPIP_flex	LDIP_flex	sternoclavicular_r2_l	sternoclavicular_r3_l	unrotscap_r3_l	unrotscap_r2_l	acromioclavicular_r2_l	acromioclavicular_r3_l	acromioclavicular_r1_l	unrothum_r1_l	unrothum_r3_l	unrothum_r2_l	elv_angle_l	shoulder_elv_l	shoulder1_r2_l	shoulder_rot_l	elbow_flexion_l	elbow_x_l	elbow_y_l	pro_sup_l	deviation_l	flexion_l	thumb_l_abd	thumb_l_flex	TCP2M_l_lateral	TCP2M_l_flex	TCP2M2_l_flex	MCP2_l_lateral	MCP2_l_flex	PIP_l_flex	DIP_l_flex	MCP2M_l_lateral	MCP2M_l_flex	MPIP_l_flex	MDIP_l_flex	RCP2M_l_lateral	RCP2M_l_flex	RPIP_l_flex	RDIP_l_flex	LCP2M_l_lateral	LCP2M_l_flex	LPIP_l_flex	LDIP_l_flex	ribs_bending
      1.96670000	    -28.16216461	     93.04402135	    -66.80224513	      0.31965709	     -0.18668808	      1.01431167	     -4.02904912	     -1.03319299	     -0.66381432	      2.03559711	     -0.78627238	     -0.33852506	      1.58663464	     -0.00362537	      0.02160081	      1.31306777	      0.09828139	      0.23299985	      0.86236204	      0.09689051	      0.19468607	      2.34132797	      0.07241987	      0.45229326	      1.52654335	     -0.02141330	      0.48181594	     -0.57696303	     -0.68080237	      0.17248400	    -24.36302610	     -0.93981588	     -2.26743149	     17.49946328	     -6.28009309	    -16.20101626	    -30.50158511	      0.85681095	      2.34676820	    -24.13467717	      2.61513677	     -7.37033747	     13.05250668	     -2.32680387	    -15.19442077	    -25.25391085	      1.65508046	      4.12211420	    -25.34130705	      7.23815207	     -7.41277596	      2.39934129	     -2.33868021	      1.82135256	    -13.31803790	     -6.09328186	     -6.92652922	     16.35340193	     -6.61125006	     26.76020611	     12.02852848	    -12.02852848	    -26.76020611	      3.31123124	     -5.00421586	     67.57588957	      5.00421586	    -32.69616943	     38.07537589	     -3.81921722	      0.00000000	     -3.58703766	     -1.49542315	    -23.69963249	     -7.66116707	     13.54132922	      0.94198836	    -14.90956357	      5.75745913	      3.52941320	     27.89012435	     28.37975395	      7.21643672	      4.18191577	     17.93440882	     42.33984570	     12.26247176	     13.10058395	     17.79461994	     48.14143066	     20.64764544	     -6.19972339	      3.07830135	     46.46713969	     15.85687352	    -16.38634318	     -6.50619565	     -6.28279624	     14.83356078	     -4.89243008	     24.27318459	     10.91062942	    -10.91062942	    -24.27318459	      3.00349432	    -12.69119186	     61.29556831	    -22.65661623	     -4.32029787	     28.30917516	     -1.72697334	      0.00000000	     -3.16791897	     -2.30806612	    -25.93712807	    -10.04986763	     10.32310666	      1.94244598	    -11.94255321	     10.25589197	      5.28846111	     27.91163440	     30.36941298	     19.65091631	      6.64747088	     21.30474734	     36.94595581	     24.21526763	     19.83561732	     17.68736220	     50.58438889	     17.96066807	     -4.31578503	     -1.85108466	     49.48812243	     18.43710085	      2.31945405
      1.97500000	    -28.09172824	     93.10998127	    -66.81076231	      0.31988010	     -0.18840520	      1.02309984	     -3.78294748	     -1.09145793	     -0.70314178	      2.15456520	     -0.83718850	     -0.36542131	      1.55257089	     -0.00966068	      0.00851501	      1.28374673	      0.10372636	      0.22558090	      0.83906225	      0.10989804	      0.18965482	      2.32735650	      0.08986883	      0.46022037	      1.54329740	     -0.00200521	      0.49098018	     -0.53141190	     -0.67447801	      0.19400441	    -24.80859281	     -1.01238214	     -2.29943663	     17.59972084	     -6.56101249	    -16.30238354	    -30.03009979	      0.66643076	      2.09123591	    -24.16676927	      2.32427135	     -7.38590026	     12.67653302	     -2.63985662	    -14.97651858	    -24.04459003	      1.91296977	      4.02387716	    -25.76743565	      7.54450599	     -7.43580835	      2.28533937	     -2.33470537	      1.77086347	    -13.43237062	     -5.46223007	     -6.97484601	     16.46747695	     -6.62917744	     26.94687497	     12.11243485	    -12.11243485	    -26.94687497	      3.33432911	     -4.79398576	     68.04727288	      4.79398576	    -32.79720444	     38.65839043	     -4.52973088	      0.00000000	     -3.30448679	     -1.61203400	    -23.96441739	     -7.59923815	     13.59658630	      0.96041044	    -14.88761308	      5.77870645	      3.51727085	     27.92478334	     28.38921704	      7.21774101	      4.16523124	     17.94503291	     42.36279197	     12.27522349	     13.08633327	     17.78005591	     48.16723749	     20.66145815	     -6.22512676	      3.04223759	     46.46941869	     15.86142276	    -16.57654334	     -5.80394867	     -6.33242570	     14.95073497	     -5.00735076	     24.46492485	     10.99681535	    -10.99681535	    -24.46492485	      3.02721971	    -12.42389093	     61.77975808	    -22.94147731	     -4.59411242	     29.21785951	     -2.54752553	      0.00000000	     -3.18845973	     -2.33438388	    -26.29079232	    -10.06146357	     10.29729486	      1.92590533	    -11.93831740	     10.27110046	      5.28332529	     27.89579046	     30.36155865	     19.64174362	      6.63090246	     21.29282812	     36.95355994	     24.21889906	     19.83904485	     17.68966906	     50.60490013	     17.96557886	     -4.32702891	     -1.83187358	     49.52256788	     18.44041016	      2.31945405
      1.98330000	    -28.00543714	     92.97871221	    -66.82368696	      0.32013552	     -0.19021306	      1.03156000	     -3.58227241	     -1.11416803	     -0.72622672	      2.17705584	     -0.84993048	     -0.38781974	      1.46255965	      0.00770692	     -0.01146268	      1.20369426	      0.12638345	      0.21944948	      0.77723073	      0.13418697	      0.18788626	      2.28134171	      0.11234539	      0.47531199	      1.54582893	      0.01433290	      0.50677455	     -0.33068035	     -0.73773297	      0.19777427	    -25.25229215	     -1.02408904	     -2.34447368	     17.49606693	     -6.70993710	    -16.48477283	    -29.62347657	      0.37640417	      1.69408348	    -23.49200082	      1.66370578	     -7.36024971	     12.32408290	     -3.00634761	    -14.91753599	    -23.37666187	      1.78573716	      3.69818062	    -26.14322946	      7.52884932	     -7.44505316	      2.44456495	     -2.32131455	      1.75860849	    -13.66836762	     -4.87473725	     -7.02344953	     16.58222891	     -6.67258245	     27.13465157	     12.19683914	    -12.19683914	    -27.13465157	      3.35756405	     -4.55518200	     68.52145348	      4.55518200	    -32.90119128	     39.37986419	     -5.25035688	      0.00000000	     -2.91697944	     -1.88599200	    -24.15795512	     -7.56332332	     13.62410905	      0.95457943	    -14.85482616	      5.81475947	      3.49515573	     28.01705469	     28.41755619	      7.22282888	      4.13390453	     18.02239176	     42.43253614	     12.30889104	     13.05469859	     17.81471987	     48.24347336	     20.69455690	     -6.28251729	      3.02468910	     46.50830431	     15.88228270	    -16.85260267	     -5.13019390	     -6.39205760	     15.09152475	     -5.19325414	     24.69530894	     11.10037141	    -11.10037141	    -24.69530894	      3.05572678	    -12.08399640	     62.36153274	    -23.17544501	     -4.81038580	     30.29892687	     -3.37064807	      0.00000000	     -3.10058191	     -2.78607590	    -26.57968488	    -10.03503664	     10.28681480	      1.92772333	    -11.92514920	     10.30190299	      5.26291940	     27.93885641	     30.37097354	     19.63155018	      6.58235668	     21.33688003	     36.99273250	     24.23061087	     19.82242590	     17.73123964	     50.66389122	     17.97993927	     -4.38687203	     -1.78842868	     49.60379183	     18.45602205	      2.31945405
      1.99170000	    -27.96391091	     92.94472523	    -66.80126936	      0.32006671	     -0.19201696	      1.03915189	     -3.52205330	     -1.16349853	     -0.74605300	      2.26513749	     -0.89654440	     -0.39579567	      1.49818075	     -0.00571217	     -0.00913269	      1.23549208	      0.12237334	      0.22011639	      0.81582521	      0.13761547	      0.19083642	      2.27102843	      0.12260557	      0.47944505	      1.55512666	      0.03145180	      0.51159878	     -0.36003488	     -0.67960798	      0.22856204	    -25.63456056	     -1.03900549	     -2.36482787	     17.43739896	     -6.94426350	    -16.72328271	    -29.09175716	     -0.05524384	      1.34370518	    -22.90076222	      1.16449202	     -7.34787712	     12.28919662	     -3.38971596	    -15.21880663	    -23.35609595	      1.20119593	      3.20458464	    -26.03751322	      6.91410439	     -7.45384690	      2.33465748	     -2.29900700	      1.71555259	    -13.83618979	     -4.23508487	     -7.07583910	     16.70591969	     -6.70957067	     27.33705538	     12.28781825	    -12.28781825	    -27.33705538	      3.38260891	     -4.35437674	     69.03257126	      4.35437674	    -32.97463382	     39.95781008	     -5.92061416	      0.00000000	     -2.67071232	     -1.85928161	    -24.53856135	     -7.49721759	     13.68549745	      0.97589487	    -14.83927255	      5.82910708	      3.49759427	     28.02636190	     28.41837820	      7.22067334	      4.13555000	     17.98814782	     42.43115432	     12.31026093	     13.04880929	     17.78041030	     48.25124258	     20.70036591	     -6.29988856	      2.97916968	     46.49815574	     15.88083676	    -17.02493520	     -4.40721570	     -6.44895215	     15.22585167	     -5.27290312	     24.91511740	     11.19917380	    -11.19917380	    -24.91511740	      3.08292525	    -11.88125822	     62.91660144	    -23.34125366	     -4.96374953	     31.18159112	     -4.20533611	      0.00000000	     -2.97738019	     -2.67836714	    -26.94562060	     -9.98289174	     10.30732653	      1.94524587	    -11.92863645	     10.30814009	      5.27677902	     27.94643096	     30.37471588	     19.62898686	      6.58844068	     21.30609824	     36.98845100	     24.22835510	     19.82518389	     17.70380358	     50.67058932	     17.98171095	     -4.40650214	     -1.81283671	     49.60828792	     18.45615773	      2.31945405
